<?xml version="1.0" encoding="UTF-8"?>
<svg version="1.1" xmlns="http://www.w3.org/2000/svg" width="512" height="512">
<path d="M0 0 C5.57073383 3.37113077 9.51850775 8.2509405 11.5 14.4375 C12.5512549 23.50042386 11.88574061 30.95059601 6.5 38.4375 C4.1243205 41.26844909 1.65965968 43.97002464 -0.88671875 46.6484375 C-3.4132226 49.34488556 -5.74739301 52.12132056 -8.0625 55 C-11.65082414 59.44599037 -15.4059548 63.68874677 -19.25390625 67.91015625 C-21.56187598 70.50712393 -23.75555863 73.17154013 -25.9375 75.875 C-29.79708603 80.64746203 -33.87199991 85.16859109 -38.02734375 89.68359375 C-41.24709519 93.26957284 -44.25905176 97.00451492 -47.28515625 100.75390625 C-50.16480887 104.24300916 -53.20693876 107.56746921 -56.25390625 110.91015625 C-58.56187598 113.50712393 -60.75555863 116.17154013 -62.9375 118.875 C-66.79708603 123.64746203 -70.87199991 128.16859109 -75.02734375 132.68359375 C-78.24709519 136.26957284 -81.25905176 140.00451492 -84.28515625 143.75390625 C-87.16480887 147.24300916 -90.20693876 150.56746921 -93.25390625 153.91015625 C-95.56187598 156.50712393 -97.75555863 159.17154013 -99.9375 161.875 C-103.79708603 166.64746203 -107.87199991 171.16859109 -112.02734375 175.68359375 C-115.24709519 179.26957284 -118.25905176 183.00451492 -121.28515625 186.75390625 C-123.45632827 189.38458557 -125.70241357 191.91692424 -128 194.4375 C-131.11458668 197.85489372 -134.0918662 201.3427235 -137 204.9375 C-140.61149134 209.40170457 -144.38660694 213.66752114 -148.25390625 217.91015625 C-150.56187598 220.50712393 -152.75555863 223.17154013 -154.9375 225.875 C-158.79708603 230.64746203 -162.87199991 235.16859109 -167.02734375 239.68359375 C-170.24709519 243.26957284 -173.25905176 247.00451492 -176.28515625 250.75390625 C-179.16480887 254.24300916 -182.20693876 257.56746921 -185.25390625 260.91015625 C-187.56187598 263.50712393 -189.75555863 266.17154013 -191.9375 268.875 C-195.79708603 273.64746203 -199.87199991 278.16859109 -204.02734375 282.68359375 C-207.24709519 286.26957284 -210.25905176 290.00451492 -213.28515625 293.75390625 C-215.45632827 296.38458557 -217.70241357 298.91692424 -220 301.4375 C-223.11458668 304.85489372 -226.0918662 308.3427235 -229 311.9375 C-232.61149134 316.40170457 -236.38660694 320.66752114 -240.25390625 324.91015625 C-242.56187598 327.50712393 -244.75555863 330.17154013 -246.9375 332.875 C-250.79708603 337.64746203 -254.87199991 342.16859109 -259.02734375 346.68359375 C-262.23910112 350.26066949 -265.24426378 353.98556149 -268.26171875 357.7265625 C-271.2450804 361.3399185 -274.38402912 364.79700838 -277.5546875 368.24609375 C-278.19664062 368.96925781 -278.83859375 369.69242187 -279.5 370.4375 C-280.07105469 371.02660156 -280.64210938 371.61570312 -281.23046875 372.22265625 C-283.1080588 375.49832874 -282.90065161 378.76098118 -282.9375 382.4375 C-283.94660622 411.3878992 -294.03187344 437.71081967 -314.453125 458.41796875 C-355.00702853 495.64917851 -418.66856271 500.74251542 -470.9375 500.5 C-472.84439985 500.49497031 -474.75130101 500.49041003 -476.65820312 500.48632812 C-481.27216822 500.47544957 -485.88606925 500.45826764 -490.5 500.4375 C-487.22347368 497.11958958 -483.92832167 494.11629452 -480.25 491.25 C-463.47452215 477.57776068 -450.19486285 457.24935022 -447.5 435.4375 C-447.15185869 431.27449384 -446.89285016 427.10633193 -446.625 422.9375 C-444.71569641 394.41600547 -435.8452949 369.12415891 -415.5 348.4375 C-414.75234375 347.67695313 -414.0046875 346.91640625 -413.234375 346.1328125 C-399.62359013 333.10792234 -382.79450963 325.94576284 -364.5625 322.125 C-363.43871948 321.88559692 -363.43871948 321.88559692 -362.29223633 321.64135742 C-358.28226006 320.87700977 -354.81153721 320.41643556 -350.70507812 320.6940918 C-342.36920822 321.16483654 -337.19163987 319.98925746 -330.85188293 314.33045959 C-327.05643282 310.63246822 -323.45539737 306.77991309 -319.875 302.875 C-318.37747524 301.30563168 -316.87619169 299.73984113 -315.37109375 298.17773438 C-310.18145197 292.75761281 -305.07287395 287.28174202 -300.18603516 281.58618164 C-296.15224127 276.9536132 -291.81592789 272.63988111 -287.45483398 268.31716919 C-285.96285757 266.83818091 -284.47422447 265.35589498 -282.98632812 263.87280273 C-279.29331846 260.19302613 -275.59482888 256.51877373 -271.89648438 252.84436035 C-268.75929696 249.72704371 -265.62426398 246.60758912 -262.49194336 243.48538208 C-261.03902092 242.03884931 -259.58307719 240.59540833 -258.12695312 239.15209961 C-253.68327506 234.72477032 -249.40792743 230.24635918 -245.32446289 225.48681641 C-241.48273988 221.17162533 -237.32087994 217.15912794 -233.21875 213.09375 C-232.23631622 212.11573581 -231.25418512 211.13741749 -230.27233887 210.15881348 C-226.66280682 206.56251016 -223.04779294 202.97173404 -219.43292236 199.38079834 C-216.3661925 196.33394421 -213.30162086 193.28494874 -210.23976135 190.23320007 C-208.82008843 188.81991371 -207.39733001 187.40972889 -205.9744873 185.99963379 C-202.19840406 182.23776003 -198.47271061 178.48310746 -195 174.4375 C-190.67131314 169.39470495 -185.93664705 164.76937824 -181.21875 160.09375 C-180.23631622 159.11573581 -179.25418512 158.13741749 -178.27233887 157.15881348 C-174.66280682 153.56251016 -171.04779294 149.97173404 -167.43292236 146.38079834 C-164.3661925 143.33394421 -161.30162086 140.28494874 -158.23976135 137.23320007 C-156.82008843 135.81991371 -155.39733001 134.40972889 -153.9744873 132.99963379 C-150.20294735 129.24228622 -146.48119258 125.49279216 -143.01367188 121.45117188 C-139.05794778 116.84296317 -134.76630725 112.59069718 -130.45483398 108.31716919 C-128.96285757 106.83818091 -127.47422447 105.35589498 -125.98632812 103.87280273 C-122.29331846 100.19302613 -118.59482888 96.51877373 -114.89648438 92.84436035 C-111.75929696 89.72704371 -108.62426398 86.60758912 -105.49194336 83.48538208 C-104.03902092 82.03884931 -102.58307719 80.59540833 -101.12695312 79.15209961 C-96.68327506 74.72477032 -92.40792743 70.24635918 -88.32446289 65.48681641 C-84.48273988 61.17162533 -80.32087994 57.15912794 -76.21875 53.09375 C-75.23631622 52.11573581 -74.25418512 51.13741749 -73.27233887 50.15881348 C-69.66280682 46.56251016 -66.04779294 42.97173404 -62.43292236 39.38079834 C-59.3661925 36.33394421 -56.30162086 33.28494874 -53.23976135 30.23320007 C-51.82008843 28.81991371 -50.39733001 27.40972889 -48.9744873 25.99963379 C-44.48261853 21.52466801 -40.1174392 17.00688067 -35.99938965 12.18395996 C-26.60046383 1.23627359 -14.88881648 -6.57279806 0 0 Z " fill="#DE7E06" transform="translate(495.5,6.5625)"/>
<path d="M0 0 C5.57073383 3.37113077 9.51850775 8.2509405 11.5 14.4375 C12.5512549 23.50042386 11.88574061 30.95059601 6.5 38.4375 C4.1243205 41.26844909 1.65965968 43.97002464 -0.88671875 46.6484375 C-3.4132226 49.34488556 -5.74739301 52.12132056 -8.0625 55 C-11.65082414 59.44599037 -15.4059548 63.68874677 -19.25390625 67.91015625 C-21.56187598 70.50712393 -23.75555863 73.17154013 -25.9375 75.875 C-29.79708603 80.64746203 -33.87199991 85.16859109 -38.02734375 89.68359375 C-41.24709519 93.26957284 -44.25905176 97.00451492 -47.28515625 100.75390625 C-50.16480887 104.24300916 -53.20693876 107.56746921 -56.25390625 110.91015625 C-58.56187598 113.50712393 -60.75555863 116.17154013 -62.9375 118.875 C-66.79708603 123.64746203 -70.87199991 128.16859109 -75.02734375 132.68359375 C-78.24709519 136.26957284 -81.25905176 140.00451492 -84.28515625 143.75390625 C-87.16480887 147.24300916 -90.20693876 150.56746921 -93.25390625 153.91015625 C-95.56187598 156.50712393 -97.75555863 159.17154013 -99.9375 161.875 C-103.79708603 166.64746203 -107.87199991 171.16859109 -112.02734375 175.68359375 C-115.24709519 179.26957284 -118.25905176 183.00451492 -121.28515625 186.75390625 C-123.45632827 189.38458557 -125.70241357 191.91692424 -128 194.4375 C-131.11458668 197.85489372 -134.0918662 201.3427235 -137 204.9375 C-140.61149134 209.40170457 -144.38660694 213.66752114 -148.25390625 217.91015625 C-150.56187598 220.50712393 -152.75555863 223.17154013 -154.9375 225.875 C-158.79708603 230.64746203 -162.87199991 235.16859109 -167.02734375 239.68359375 C-170.24709519 243.26957284 -173.25905176 247.00451492 -176.28515625 250.75390625 C-179.16480887 254.24300916 -182.20693876 257.56746921 -185.25390625 260.91015625 C-187.56187598 263.50712393 -189.75555863 266.17154013 -191.9375 268.875 C-197.15232075 275.32007776 -202.63523865 281.57273865 -208.5 287.4375 C-224.34 271.5975 -240.18 255.7575 -256.5 239.4375 C-254.41636059 235.27022119 -251.87717583 232.36128936 -248.71484375 229.02734375 C-248.10664291 228.38119614 -247.49844208 227.73504852 -246.87181091 227.06932068 C-237.80751265 217.51255151 -228.40920491 208.27877005 -219.0625 199 C-215.33150176 195.29610615 -211.60430257 191.58843681 -207.87890625 187.87890625 C-207.04025528 187.04855362 -206.20160431 186.21820099 -205.33753967 185.36268616 C-201.79131645 181.83119461 -198.31682134 178.29236455 -195.05639648 174.49389648 C-190.70516859 169.43530622 -185.95566098 164.78822182 -181.21875 160.09375 C-180.23631622 159.11573581 -179.25418512 158.13741749 -178.27233887 157.15881348 C-174.66280682 153.56251016 -171.04779294 149.97173404 -167.43292236 146.38079834 C-164.3661925 143.33394421 -161.30162086 140.28494874 -158.23976135 137.23320007 C-156.82008843 135.81991371 -155.39733001 134.40972889 -153.9744873 132.99963379 C-150.20294735 129.24228622 -146.48119258 125.49279216 -143.01367188 121.45117188 C-139.05794778 116.84296317 -134.76630725 112.59069718 -130.45483398 108.31716919 C-128.96285757 106.83818091 -127.47422447 105.35589498 -125.98632812 103.87280273 C-122.29331846 100.19302613 -118.59482888 96.51877373 -114.89648438 92.84436035 C-111.75929696 89.72704371 -108.62426398 86.60758912 -105.49194336 83.48538208 C-104.03902092 82.03884931 -102.58307719 80.59540833 -101.12695312 79.15209961 C-96.68327506 74.72477032 -92.40792743 70.24635918 -88.32446289 65.48681641 C-84.48273988 61.17162533 -80.32087994 57.15912794 -76.21875 53.09375 C-75.23631622 52.11573581 -74.25418512 51.13741749 -73.27233887 50.15881348 C-69.66280682 46.56251016 -66.04779294 42.97173404 -62.43292236 39.38079834 C-59.3661925 36.33394421 -56.30162086 33.28494874 -53.23976135 30.23320007 C-51.82008843 28.81991371 -50.39733001 27.40972889 -48.9744873 25.99963379 C-44.48261853 21.52466801 -40.1174392 17.00688067 -35.99938965 12.18395996 C-26.60046383 1.23627359 -14.88881648 -6.57279806 0 0 Z " fill="#389348" transform="translate(495.5,6.5625)"/>
<path d="M0 0 C3.00779034 1.31746188 3.91611089 1.86817426 5.75 4.75 C8.49533023 12.05562879 8.32152868 21.09165975 5.125 28.1875 C2.28142328 33.10351399 -1.48892353 37.11103438 -5.38671875 41.2109375 C-7.9132226 43.90738556 -10.24739301 46.68382056 -12.5625 49.5625 C-16.15082414 54.00849037 -19.9059548 58.25124677 -23.75390625 62.47265625 C-26.06187598 65.06962393 -28.25555863 67.73404013 -30.4375 70.4375 C-34.29708603 75.20996203 -38.37199991 79.73109109 -42.52734375 84.24609375 C-45.74709519 87.83207284 -48.75905176 91.56701492 -51.78515625 95.31640625 C-54.66480887 98.80550916 -57.70693876 102.12996921 -60.75390625 105.47265625 C-63.06187598 108.06962393 -65.25555863 110.73404013 -67.4375 113.4375 C-71.29708603 118.20996203 -75.37199991 122.73109109 -79.52734375 127.24609375 C-82.74709519 130.83207284 -85.75905176 134.56701492 -88.78515625 138.31640625 C-91.66480887 141.80550916 -94.70693876 145.12996921 -97.75390625 148.47265625 C-100.06187598 151.06962393 -102.25555863 153.73404013 -104.4375 156.4375 C-108.29708603 161.20996203 -112.37199991 165.73109109 -116.52734375 170.24609375 C-119.74709519 173.83207284 -122.75905176 177.56701492 -125.78515625 181.31640625 C-127.95632827 183.94708557 -130.20241357 186.47942424 -132.5 189 C-135.61458668 192.41739372 -138.5918662 195.9052235 -141.5 199.5 C-145.11149134 203.96420457 -148.88660694 208.23002114 -152.75390625 212.47265625 C-155.06187598 215.06962393 -157.25555863 217.73404013 -159.4375 220.4375 C-163.29708603 225.20996203 -167.37199991 229.73109109 -171.52734375 234.24609375 C-174.74709519 237.83207284 -177.75905176 241.56701492 -180.78515625 245.31640625 C-183.66480887 248.80550916 -186.70693876 252.12996921 -189.75390625 255.47265625 C-192.06187598 258.06962393 -194.25555863 260.73404013 -196.4375 263.4375 C-201.65232075 269.88257776 -207.13523865 276.13523865 -213 282 C-216.45218982 278.67125189 -219.88774527 275.32652081 -223.30883789 271.96582031 C-224.47528968 270.82453907 -225.64618586 269.68778212 -226.8215332 268.55566406 C-228.50876271 266.92897255 -230.17942172 265.28676277 -231.84765625 263.640625 C-232.37778824 263.13629944 -232.90792023 262.63197388 -233.45411682 262.11236572 C-234.91040039 260.65722656 -234.91040039 260.65722656 -237 258 C-236.92834232 254.86783235 -236.06955707 254.07835165 -233.9609375 251.703125 C-233.10757812 250.89359375 -232.25421875 250.0840625 -231.375 249.25 C-227.64371316 245.69092639 -224.22088238 242.00624975 -220.84765625 238.10595703 C-217.76139394 234.58823786 -214.53320299 231.20674074 -211.3125 227.8125 C-206.47257543 222.69148278 -201.64528055 217.56100543 -196.875 212.375 C-192.60310658 207.73132187 -188.30893203 203.10933688 -184 198.5 C-177.63819855 191.69273324 -171.31232018 184.85313476 -165 178 C-158.09610561 170.5046073 -151.16989476 163.03120872 -144.21142578 155.58642578 C-139.97002318 151.04615199 -135.75057412 146.48627185 -131.54125977 141.91625977 C-127.69119964 137.73989095 -123.81713075 133.58639617 -119.9375 129.4375 C-115.78866905 125.00040722 -111.65899067 120.54797495 -107.5625 116.0625 C-102.60541614 110.63817995 -97.58148493 105.2789468 -92.54931641 99.92431641 C-87.92845669 95.00268373 -83.35728324 90.0395772 -78.8046875 85.0546875 C-74.9880608 80.88634862 -71.12158193 76.76449232 -67.26147461 72.63647461 C-63.49283338 68.60448627 -59.73901606 64.55946738 -56 60.5 C-51.6654737 55.79398433 -47.30737358 51.11070537 -42.9375 46.4375 C-37.87224409 41.01987847 -32.84741226 35.56834518 -27.84375 30.09375 C-24.00018403 25.90076894 -20.10775769 21.75334985 -16.22216797 17.59936523 C-10.77411689 11.76993548 -5.37809217 5.89394999 0 0 Z " fill="#2B6E38" transform="translate(500,12)"/>
<path d="M0 0 C5.96118297 4.93997261 11.41486302 10.28529862 16.87109375 15.7734375 C17.793423 16.6971817 18.71575226 17.6209259 19.66603088 18.57266235 C22.09633814 21.00675431 24.52362496 23.44383597 26.95025635 25.8815918 C29.43569364 28.3773311 31.92402932 30.87017708 34.41210938 33.36328125 C39.27755096 38.2393886 44.13980198 43.11866631 49 48 C47.13761309 51.97070919 44.5612113 55.03558941 41.6875 58.3125 C41.15769531 58.92351562 40.62789063 59.53453125 40.08203125 60.1640625 C38.95930624 61.45809531 37.83475046 62.75054168 36.70849609 64.04150391 C34.506486 66.56572868 32.3134558 69.09766858 30.12036133 71.62963867 C29.0335057 72.88418153 27.94609654 74.13824504 26.8581543 75.3918457 C23.22308097 79.58124742 19.60575912 83.78535279 16 88 C11.8514007 92.84915433 7.68316334 97.680633 3.5 102.5 C-6.10975742 113.57650233 -15.64869923 124.70395969 -25 136 C-31.44690639 130.68985746 -37.29949437 124.82873116 -43.18359375 118.9140625 C-44.24954109 117.84624655 -45.31571205 116.77865378 -46.38209534 115.71127319 C-49.16750139 112.92207682 -51.94988929 110.129889 -54.73162842 107.33703613 C-57.57901064 104.47936425 -60.42927986 101.62457498 -63.27929688 98.76953125 C-68.85567081 93.18248158 -74.42885494 87.59226366 -80 82 C-76.05018554 77.26201092 -71.92820674 72.80055481 -67.53515625 68.47265625 C-66.93875839 67.88004501 -66.34236053 67.28743378 -65.72789001 66.67686462 C-63.20954847 64.17466326 -60.68523618 61.6785186 -58.16137695 59.18188477 C-56.30467075 57.34344519 -54.45111647 55.50186741 -52.59765625 53.66015625 C-52.04014175 53.11094009 -51.48262726 52.56172394 -50.90821838 51.99586487 C-48.03902962 49.14420488 -45.30270581 46.23236052 -42.66357422 43.16577148 C-38.58649506 38.4538658 -34.20328798 34.07771903 -29.78515625 29.6875 C-28.92941513 28.83317383 -28.07367401 27.97884766 -27.19200134 27.09863281 C-24.48452619 24.39671138 -21.77357746 21.69830641 -19.0625 19 C-17.21526325 17.15778423 -15.36825573 15.31533857 -13.52148438 13.47265625 C-9.01696997 8.97910939 -4.50960595 4.4884368 0 0 Z " fill="#FDCA5C" transform="translate(238,245)"/>
<path d="M0 0 C2.23474521 2.21382716 4.11513117 4.38122126 5.87890625 6.98046875 C3.37875838 8.647234 1.34060101 9.69055484 -1.41015625 10.79296875 C-24.07072345 20.0610549 -42.42758289 32.13784809 -60.12109375 48.98046875 C-60.87777344 49.67269531 -61.63445312 50.36492187 -62.4140625 51.078125 C-74.12182209 62.14611631 -83.42947023 75.89269189 -91.12109375 89.98046875 C-91.62866211 90.90496826 -91.62866211 90.90496826 -92.14648438 91.84814453 C-96.52349008 99.93054083 -100.05078941 108.17758854 -103.24609375 116.79296875 C-110.43716595 136.16099233 -121.79916997 151.18760957 -138.12109375 163.98046875 C-138.78109375 163.65046875 -139.44109375 163.32046875 -140.12109375 162.98046875 C-139.49203125 162.26503906 -138.86296875 161.54960937 -138.21484375 160.8125 C-122.66913303 142.71485785 -114.63385643 124.48697571 -113.30859375 100.66796875 C-111.34863359 72.08420192 -102.51752039 46.71911732 -82.12109375 25.98046875 C-81.3734375 25.21992188 -80.62578125 24.459375 -79.85546875 23.67578125 C-64.23643171 8.72908687 -21.10785094 -13.6580212 0 0 Z " fill="#F6971E" transform="translate(162.12109375,329.01953125)"/>
<path d="M0 0 C3.93088136 3.31599075 7.77715018 6.65139165 11.40234375 10.3046875 C12.14677734 11.05234375 12.89121094 11.8 13.65820312 12.5703125 C14.41037109 13.33085937 15.16253906 14.09140625 15.9375 14.875 C16.71673828 15.65875 17.49597656 16.4425 18.29882812 17.25 C20.20154085 19.16438581 22.10186171 21.08108034 24 23 C22.28974534 26.66434951 20.24002076 28.9345589 17.3125 31.75 C13.60617271 35.32375259 10.18467195 39.03697447 6.81860352 42.92529297 C3.89854228 46.2565697 0.85495489 49.46832166 -2.1875 52.6875 C-3.51342292 54.09597575 -4.83893881 55.50483478 -6.1640625 56.9140625 C-7.13907715 57.95095215 -7.13907715 57.95095215 -8.13378906 59.00878906 C-10.79247657 61.84555716 -13.42981108 64.70161797 -16.0625 67.5625 C-20.94071015 72.86182693 -25.84998272 78.13137638 -30.76953125 83.39233398 C-35.20582801 88.13978767 -39.61767192 92.90919992 -44.00585938 97.70117188 C-46.92992048 100.88311604 -49.92581036 103.96472416 -53 107 C-56.90851199 105.41568547 -59.52367356 102.73364905 -62.421875 99.7734375 C-62.92672424 99.26575836 -63.43157349 98.75807922 -63.95172119 98.23501587 C-65.55592096 96.61966158 -67.15300856 94.99747791 -68.75 93.375 C-69.83938107 92.27558302 -70.9292199 91.17661941 -72.01953125 90.078125 C-74.68501885 87.3906398 -77.34415143 84.69700979 -80 82 C-76.05018554 77.26201092 -71.92820674 72.80055481 -67.53515625 68.47265625 C-66.93875839 67.88004501 -66.34236053 67.28743378 -65.72789001 66.67686462 C-63.20954847 64.17466326 -60.68523618 61.6785186 -58.16137695 59.18188477 C-56.30467075 57.34344519 -54.45111647 55.50186741 -52.59765625 53.66015625 C-52.04014175 53.11094009 -51.48262726 52.56172394 -50.90821838 51.99586487 C-48.03902962 49.14420488 -45.30270581 46.23236052 -42.66357422 43.16577148 C-38.58649506 38.4538658 -34.20328798 34.07771903 -29.78515625 29.6875 C-28.92941513 28.83317383 -28.07367401 27.97884766 -27.19200134 27.09863281 C-24.48452619 24.39671138 -21.77357746 21.69830641 -19.0625 19 C-17.21526325 17.15778423 -15.36825573 15.31533857 -13.52148438 13.47265625 C-9.01696997 8.97910939 -4.50960595 4.4884368 0 0 Z " fill="#FCE1A6" transform="translate(238,245)"/>
<path d="M0 0 C2.31 1.98 4.62 3.96 7 6 C-3.69309395 37.51419965 -23.17476766 64.98442996 -49.21875 85.76953125 C-50.97166822 87.17531257 -52.70431375 88.6071276 -54.40625 90.07421875 C-75.08170669 107.77267139 -104.39053613 127.76678495 -131 135 C-131.66 134.67 -132.32 134.34 -133 134 C-132.3709375 133.50371094 -131.741875 133.00742187 -131.09375 132.49609375 C-128.38382064 130.34529138 -125.68949492 128.17629144 -123 126 C-122.29746094 125.43796875 -121.59492187 124.8759375 -120.87109375 124.296875 C-116.11801426 120.34077652 -112.32314235 115.90999924 -108.47265625 111.08203125 C-100.58036815 101.24472428 -92.1664478 91.86864803 -83.55078125 82.6640625 C-81.99324554 80.99275214 -80.44857518 79.31034782 -78.90625 77.625 C-71.65926001 69.73721661 -64.18868832 62.08279732 -56.625 54.5 C-55.234021 53.10213257 -55.234021 53.10213257 -53.81494141 51.67602539 C-49.29597467 47.16722369 -44.72074775 42.81430099 -39.87646484 38.65820312 C-36.59726414 35.76042389 -33.56246271 32.62322428 -30.5 29.5 C-26.14223826 25.09517935 -21.77749331 20.81380493 -17.0390625 16.81640625 C-12.13848926 12.45095308 -7.60816026 7.6696024 -3 3 C-2.01 2.01 -1.02 1.02 0 0 Z " fill="#F6961E" transform="translate(188,357)"/>
<path d="M0 0 C0.58007812 0.58007812 1.16015625 1.16015625 1.7578125 1.7578125 C2.65113281 2.62019531 2.65113281 2.62019531 3.5625 3.5 C3.99820313 3.95632813 4.43390625 4.41265625 4.8828125 4.8828125 C4.18800781 5.57632812 3.49320313 6.26984375 2.77734375 6.984375 C0.78863255 8.97238669 -1.19179886 10.96827527 -3.16796875 12.96875 C-12.9515407 22.84768422 -12.9515407 22.84768422 -16.9921875 26.2578125 C-21.77321013 30.30642315 -26.10505891 34.8208479 -30.48779297 39.29052734 C-33.45890062 42.30245338 -36.45087286 45.20953863 -39.67578125 47.94921875 C-45.65415958 53.10689319 -51.15560787 58.77262705 -56.72631836 64.36157227 C-58.6751562 66.31576874 -60.62928022 68.26456397 -62.58398438 70.21289062 C-68.0989347 75.72489249 -73.58630433 81.21116787 -78.63745117 87.15795898 C-81.31016686 90.27340797 -84.1690348 93.21679326 -86.9921875 96.1953125 C-91.9023247 101.41188693 -96.55052383 106.72246553 -101.02734375 112.31640625 C-108.64184574 121.66729935 -117.07081295 129.94013506 -126.1171875 137.8828125 C-126.7771875 137.5528125 -127.4371875 137.2228125 -128.1171875 136.8828125 C-127.5603125 136.21378906 -127.0034375 135.54476562 -126.4296875 134.85546875 C-118.22241454 124.52705936 -112.88019431 113.2825024 -108.6171875 100.8203125 C-102.32624809 82.53269795 -91.86298154 65.36257499 -79.1171875 50.8828125 C-78.38757813 50.04363281 -77.65796875 49.20445312 -76.90625 48.33984375 C-74.67857033 45.81904834 -72.41028263 43.34417229 -70.1171875 40.8828125 C-69.01503906 39.68205078 -69.01503906 39.68205078 -67.890625 38.45703125 C-51.90916002 21.70054539 -31.57620671 9.8954593 -10.10449219 1.64794922 C-8.32489998 0.96278436 -6.56507549 0.22678405 -4.80859375 -0.515625 C-2.1171875 -1.1171875 -2.1171875 -1.1171875 0 0 Z " fill="#F6961E" transform="translate(177.1171875,345.1171875)"/>
</svg>
